<?xml version="1.0" encoding="utf-8"?>
<!-- Generator: Adobe Illustrator 19.1.0, SVG Export Plug-In . SVG Version: 6.00 Build 0)  -->
<svg version="1.1" id="Layer_1" xmlns="http://www.w3.org/2000/svg" xmlns:xlink="http://www.w3.org/1999/xlink" x="0px" y="0px"
	 viewBox="0 0 193.8 58.1" style="enable-background:new 0 0 193.8 58.1;" xml:space="preserve">
<style type="text/css">
	.st0{fill:#FECB00;}
	.st1{fill:#5096F2;}
	.st2{fill:#46D4E6;}
	.st3{fill:#17C27D;}
	.st4{fill:#C8D700;}
	.st5{fill:#FA5436;}
	.st6{fill:none;stroke:#C8D700;stroke-width:2;}
	.st7{fill:none;stroke:#ED1C24;stroke-width:2;}
	.st8{clip-path:url(#SVGID_2_);fill-rule:evenodd;clip-rule:evenodd;fill:#666E75;}
	.st9{clip-path:url(#SVGID_4_);fill:#666E75;}
	.st10{fill-rule:evenodd;clip-rule:evenodd;fill:#666E75;}
	.st11{fill:none;}
	.st12{fill:#666E75;}
	.st13{fill:#1180b0;}
	.st14{clip-path:url(#SVGID_6_);fill:#666E75;}
	.st15{clip-path:url(#SVGID_8_);fill:#FECB00;}
	.st16{clip-path:url(#SVGID_8_);fill-rule:evenodd;clip-rule:evenodd;fill:#666E75;}
	.st17{clip-path:url(#SVGID_10_);fill:#666E75;}
	.st18{clip-path:url(#SVGID_12_);fill:#FA5436;}
	.st19{clip-path:url(#SVGID_12_);fill-rule:evenodd;clip-rule:evenodd;fill:#666E75;}
	.st20{clip-path:url(#SVGID_14_);fill:#666E75;}
	.st21{clip-path:url(#SVGID_16_);fill:#C8D700;}
	.st22{clip-path:url(#SVGID_16_);fill-rule:evenodd;clip-rule:evenodd;fill:#666E75;}
	.st23{clip-path:url(#SVGID_18_);fill:#666E75;}
	.st24{clip-path:url(#SVGID_20_);fill:#17C27D;}
	.st25{clip-path:url(#SVGID_20_);fill-rule:evenodd;clip-rule:evenodd;fill:#666E75;}
	.st26{clip-path:url(#SVGID_22_);fill:#666E75;}
	.st27{clip-path:url(#SVGID_24_);fill:#17C27D;}
	.st28{clip-path:url(#SVGID_24_);fill-rule:evenodd;clip-rule:evenodd;fill:#17C27D;}
	.st29{clip-path:url(#SVGID_26_);fill:#17C27D;}
	.st30{clip-path:url(#SVGID_28_);fill:#17C27D;}
	.st31{clip-path:url(#SVGID_28_);fill-rule:evenodd;clip-rule:evenodd;}
	.st32{clip-path:url(#SVGID_30_);}
	.st33{clip-path:url(#SVGID_32_);fill:#17C27D;}
	.st34{clip-path:url(#SVGID_32_);fill-rule:evenodd;clip-rule:evenodd;fill:#FFFFFF;}
	.st35{clip-path:url(#SVGID_34_);fill:#FFFFFF;}
	.st36{clip-path:url(#SVGID_36_);fill:#FFFFFF;}
	.st37{clip-path:url(#SVGID_36_);fill-rule:evenodd;clip-rule:evenodd;fill:#FFFFFF;}
	.st38{clip-path:url(#SVGID_38_);fill:#FFFFFF;}
	.st39{clip-path:url(#SVGID_40_);fill:#FFFFFF;}
	.st40{clip-path:url(#SVGID_40_);fill-rule:evenodd;clip-rule:evenodd;fill:#FFFFFF;}
	.st41{clip-path:url(#SVGID_42_);fill:#FFFFFF;}
	.st42{clip-path:url(#SVGID_44_);fill:#FFFFFF;}
	.st43{clip-path:url(#SVGID_44_);fill-rule:evenodd;clip-rule:evenodd;fill:#FFFFFF;}
	.st44{clip-path:url(#SVGID_46_);fill:#FFFFFF;}
	.st45{clip-path:url(#SVGID_48_);fill:#FFFFFF;}
	.st46{clip-path:url(#SVGID_48_);fill-rule:evenodd;clip-rule:evenodd;fill:#FFFFFF;}
	.st47{clip-path:url(#SVGID_50_);fill:#FFFFFF;}
	.st48{clip-path:url(#SVGID_52_);fill:#FFFFFF;}
	.st49{clip-path:url(#SVGID_52_);fill-rule:evenodd;clip-rule:evenodd;fill:#FFFFFF;}
	.st50{clip-path:url(#SVGID_54_);fill:#FFFFFF;}
	.st51{clip-path:url(#SVGID_56_);fill:#FFFFFF;}
	.st52{clip-path:url(#SVGID_56_);fill-rule:evenodd;clip-rule:evenodd;fill:#666E75;}
	.st53{clip-path:url(#SVGID_58_);fill:#666E75;}
	.st54{clip-path:url(#SVGID_60_);fill:#666E75;}
	.st55{clip-path:url(#SVGID_60_);fill-rule:evenodd;clip-rule:evenodd;fill:#666E75;}
	.st56{clip-path:url(#SVGID_62_);fill:#666E75;}
	.st57{clip-path:url(#SVGID_64_);fill:#FFFFFF;}
</style>
<path class="st10" d="M184.8,21.4c-3.2,0-8.7,0.6-12.1,1.2l0.6,3.9c3.7-0.2,7.6-0.5,9.7-0.8c2.7-0.4,3.8,1.2,3.8,2.6v2.8h-8.2
	c-4.4,0-7.1,2-7.1,5.7v2.4c0,4.3,3.2,6.6,7.5,6.6c4.1,0,6.9-2.2,8.5-4.1l0.7,4.1h5.5V29.9C193.9,23.4,190.8,21.4,184.8,21.4
	 M187,38.3c-1.9,1.5-4.3,2.3-5.9,2.3c-1.9,0-2.8-1.2-2.8-2.8v-0.1c0-1.3,1.2-2.6,2.8-2.6h5.8V38.3z"/>
<path class="st10" d="M158.7,21.4c-3.2,0-8.7,0.6-12.1,1.2l0.6,3.9c3.7-0.2,7.6-0.5,9.7-0.8c2.7-0.4,3.8,1.2,3.8,2.6v2.8h-8.2
	c-4.4,0-7.1,2-7.1,5.7v2.4c0,4.3,3.2,6.6,7.5,6.6c4.1,0,6.9-2.2,8.5-4.1l0.7,4.1h5.5V29.9C167.8,23.4,164.7,21.4,158.7,21.4
	 M160.9,38.3c-1.9,1.5-4.3,2.3-5.9,2.3c-1.9,0-2.8-1.2-2.8-2.8v-0.1c0-1.3,1.2-2.6,2.8-2.6h5.8V38.3z"/>
<path class="st10" d="M85.7,21.4c-3.2,0-8.7,0.6-12.1,1.2l0.6,3.9c3.7-0.2,7.6-0.5,9.7-0.8c2.7-0.4,3.8,1.2,3.8,2.6v2.8h-8.2
	c-4.4,0-7.1,2-7.1,5.7v2.4c0,4.3,3.2,6.6,7.5,6.6c4.1,0,6.9-2.2,8.5-4.1l0.7,4.1h5.5V29.9C94.9,23.4,91.7,21.4,85.7,21.4 M88,38.3
	c-1.9,1.5-4.3,2.3-5.9,2.3c-1.9,0-2.8-1.2-2.8-2.8v-0.1c0-1.3,1.2-2.6,2.8-2.6H88V38.3z"/>
<path class="st10" d="M191.8,50.6c-1,0-1.7,0.4-2.6,1.2c-0.3-0.8-0.9-1.2-1.8-1.2c-1,0-1.8,0.4-2.7,1.3l-0.1-1h-1.7v7.1h2.1V53
	c0.8-0.5,1.1-0.6,1.6-0.6c0.5,0,0.8,0.2,0.8,0.8v4.7h2V53c0.8-0.5,1.1-0.6,1.6-0.6c0.6,0,0.8,0.2,0.8,0.8v4.7h2.1v-5.3
	C193.8,51.3,193.1,50.6,191.8,50.6 M177.8,52.2c-1.1,0-1.4,0.4-1.4,2.2c0,1.7,0.3,2.1,1.4,2.1c1.1,0,1.4-0.4,1.4-2.1
	C179.2,52.6,178.9,52.2,177.8,52.2 M177.8,50.6c2.7,0,3.6,1,3.6,3.8c0,2.7-1,3.7-3.6,3.7c-2.7,0-3.6-1-3.6-3.7
	C174.1,51.6,175.1,50.6,177.8,50.6 M170.4,50.6c-2.6,0-3.6,1-3.6,3.8c0,2.7,0.9,3.7,3.5,3.7c1,0,2-0.1,2.8-0.5l-0.2-1.4
	c-0.8,0.1-1.7,0.1-2.2,0.1c-1.3,0-1.7-0.4-1.7-2c0-1.6,0.4-2,1.7-2c0.5,0,1.2,0,2,0L173,51C172.2,50.7,171.1,50.6,170.4,50.6
	 M164.2,55.7c-0.6,0-0.8,0.2-0.8,0.7v0.7c0,0.6,0.2,0.8,0.8,0.8h0.6c0.6,0,0.8-0.2,0.8-0.8v-0.7c0-0.6-0.2-0.7-0.8-0.7H164.2z"/>
<path class="st10" d="M132.1,30.5c0-0.9,0.7-1.9,1.6-2.2c2-0.8,4-0.5,5.5-0.5h1.9l0.7-6.4h-1.2c-3,0-6.3,1.4-9.4,4.1l-0.6-4h-5.4
	v24.3h6.9V30.5z"/>
<path class="st10" d="M121.5,33.4c0-8.6-2.5-12-8.4-12c-3,0-6,1.5-8.2,3.8c0.5-1.7,0.6-3.6,0.6-5.5v-7.4h-7V44
	c2.9,1.2,8.5,1.8,11.8,1.8C119.5,45.7,121.5,40.5,121.5,33.4 M105.4,28.9c1.7-1.2,3.7-2.2,5.5-2.2c3.4,0,3.5,1.7,3.5,6.7
	c0,5.5-0.3,7.1-3.5,7.2c-1.3,0-4-0.1-5.5-0.5V28.9z"/>
<path class="st11" d="M105.4,40.1V28.9c1.7-1.2,3.7-2.2,5.5-2.2c3.4,0,3.5,1.7,3.5,6.7c0,5.5-0.3,7.1-3.5,7.2c-0.2,0-0.3,0-0.5,0
	C109,40.6,106.8,40.4,105.4,40.1 M98.5,12.3V44c2.9,1.2,8.5,1.8,11.8,1.8c9.2,0,11.2-5.2,11.2-12.3c0-8.6-2.5-12-8.4-12
	c-3,0-6,1.5-8.2,3.8c0.5-1.7,0.6-3.6,0.6-5.5v-7.4H98.5z"/>
<path class="st13" d="M7.5,42c0.9-3.1,2.5-6.1,4-9c3.9-7.5,7.9-15,11.8-22.5c0.9-1.7,2-3.4,3.1-5c2.1-3,5.2-4.8,8.5-5.4
	c-4.8-0.9-12.4,1-15.5,5.4c-1.1,1.6-2.2,3.3-3.1,5c-4,7.5-8,14.9-11.8,22.5c-1.5,2.9-3.1,5.8-4,9c-2.2,7.9,5.5,14.8,13.4,14.8
	c0.9,0,1.7,0,2.5-0.2C9.6,55.5,5.4,49.2,7.5,42"/>
<path class="st13" d="M40.5,6c-1.6,0-2.5,0.8-3.6,2.3c-0.4,0.6-0.8,1.2-1.2,2c-3,5.7-6,11.4-9,17.1c-0.6,1.2-3.8,7.4-3.8,7.4
	l1.9-0.8c0.3-0.1,0.6-0.2,0.8-0.3c0.4-0.2,0.7-0.3,1.1-0.5c1.5-0.8,2.4-1.6,3-2.7c2.2-4.3,4.5-8.6,6.8-12.9l3.2-6.2
	c0.4-0.8,0.8-1.1,1.5-1.1c0.7,0,1.1,0.3,1.5,1c0,0,12.7,23.9,15.5,29.3c2.2,4.2,1.8,7.8-1.3,11l-1.3,1.3l1.8-0.1
	c1.6-0.1,2.2-0.7,2.9-1.9c0.6-1,0.8-2,1.1-3.1c0.7-3.8-0.3-7.2-2-10.5c-4.2-8-8.4-16-12.7-24c-1-2-2.1-3.9-3.3-5.8
	C42.6,6.4,41.8,6,40.5,6"/>
<path class="st13" d="M38.5,26.5l-0.9-1.6c-0.2-0.3-0.3-0.6-0.5-0.9c-1.1,2.2-2.2,4.2-3.3,6.2h6.6L38.5,26.5z"/>
<path class="st13" d="M43.4,51.2c-2.8-2.2-5.7-2.9-8.5-2.1c1.3,0.4,2.6,1.1,3.8,2.1c0.8,0.6,1.6,1.3,2.3,1.9
	c3.1,2.5,6.7,3.8,10.7,3.7c0.6,0,1.2-0.1,1.8-0.2c-2.9-0.4-5.5-1.6-7.9-3.5C44.9,52.5,44.2,51.8,43.4,51.2"/>
<path class="st13" d="M32.9,3.7c-0.8,0.7-1.7,1.5-2.1,2.2c-1.2,1.8-2.2,3.4-3.2,5.3c-4,7-7.8,14.2-11.5,21.1l-2.3,4.4
	c-0.3,0.6-0.6,1.2-0.8,2.1c-0.6,2.4,0.1,4.7,1.8,6c0.9,0.7,2,1,3.1,1c1.2,0,2.3-0.4,3.4-1c0.8-0.5,1.5-1.1,2.2-1.6l0.4-0.3
	c4.4-3.4,8.7-5,13.3-5c1,0,2,0.1,3,0.2c1,0.2,2,0.4,3.1,0.7c0.5,0.1,1.1,0.3,1.6,0.4l1.6,0.4c0,0-0.5-1.1-0.7-1.5
	c-0.1-0.2-0.2-0.4-0.4-0.6c-0.2-0.4-0.4-0.7-0.6-1c-0.9-1.4-1.8-2-2.8-2.2c-1.7-0.4-3.4-0.5-5.1-0.5c-1.9,0-3.7,0.2-5.5,0.7
	c-4.8,1.2-8.6,3.9-11.8,6.4c-0.6,0.5-1.1,0.7-1.5,0.7c-0.3,0-0.6-0.1-0.9-0.4c-0.3-0.2-0.9-0.8-0.1-2.5c0,0,1.9-3.6,2.7-5.1
	L36.1,2.8C36.1,2.8,34.1,2.7,32.9,3.7"/>
<path class="st13" d="M39.8,17.5c-0.8,1.6-0.5,2.6,0,3.4c0.8,1.3,1.5,2.6,2.2,3.9l0.6,1.2c3.2,6,6.3,12,9.4,18
	c0.3,0.7,0.6,1.6-0.2,2.2c-0.3,0.2-0.6,0.3-0.9,0.3c-0.4,0-0.9-0.2-1.4-0.6L49,45.6c-0.6-0.4-1.1-0.9-1.7-1.3
	c-3.3-2.2-6.6-3.3-10-3.3c-1.2,0-2.5,0.1-3.7,0.4c-3.1,0.7-5.9,2.3-9.1,4.9c-1.9,1.6-4.2,2.5-6.5,2.5c-2,0-4-0.7-5.8-2l-2-1.5
	l0.9,2.3c1.1,3,2.9,4.6,5.5,5.1c0.7,0.1,1.5,0.2,2.2,0.2c2.1,0,4.1-0.6,6-1.9c1-0.7,2-1.4,2.9-2.2l0.6-0.5c2.9-2.3,5.9-3.5,8.9-3.5
	c2.9,0,5.9,1.1,8.8,3.4c0.8,0.6,1.6,1.2,2.5,1.7c0.8,0.4,1.7,0.6,2.5,0.6h0c2.9,0,5.2-2.1,5.3-4.9c0-1.3-0.4-2.6-0.9-3.5L41,15.4
	C41,15.4,40.1,16.8,39.8,17.5"/>
</svg>
